REM DIRINDEX 1\2\4\8,1\2\4\9,1\2\4\10,1\2\5\11,1\2\5\12,1\2\5\13,1\2\5\14,1\2\5\15,1\3\6\16,1\3\6\17,1\3\6\18,1\3\7\19,1\3\7\20,1\3\7\21,1\3\7\22,1\3\7\23
REM DIRNAME "folder01","folder02","folder03","folder04","folder05","folder06","folder07","folder08","folder09","folder10","folder11","folder12","folder13","folder14","folder15","folder16","folder17","folder18","folder19","folder20","folder21","folder22","folder23"
TITLE ""
FILE "LR_black_phrase_S04.mp3" MP3
  TRACK 01 AUDIO
    TITLE "0:"
    INDEX 01 00:00:00
  TRACK 02 AUDIO
    TITLE "19:cjc171_15301"
    INDEX 01 00:00:14
  TRACK 03 AUDIO
    TITLE "0:"
    INDEX 01 00:01:25
  TRACK 04 AUDIO
    TITLE "20:cjc171_15302"
    INDEX 01 00:01:65
  TRACK 05 AUDIO
    TITLE "0:"
    INDEX 01 00:04:39
  TRACK 06 AUDIO
    TITLE "21:cjc171_15303"
    INDEX 01 00:05:39
  TRACK 07 AUDIO
    TITLE "0:"
    INDEX 01 00:08:12
  TRACK 08 AUDIO
    TITLE "22:cjc171_15304"
    INDEX 01 00:08:49
  TRACK 09 AUDIO
    TITLE "0:"
    INDEX 01 00:11:41
  TRACK 10 AUDIO
    TITLE "23:cjc171_15305"
    INDEX 01 00:11:69
  TRACK 11 AUDIO
    TITLE "0:"
    INDEX 01 00:14:61
  TRACK 12 AUDIO
    TITLE "19:cjc171_15306"
    INDEX 01 00:15:65
  TRACK 13 AUDIO
    TITLE "0:"
    INDEX 01 00:17:01
  TRACK 14 AUDIO
    TITLE "20:cjc171_15307"
    INDEX 01 00:17:38
  TRACK 15 AUDIO
    TITLE "0:"
    INDEX 01 00:20:27
  TRACK 16 AUDIO
    TITLE "21:cjc171_15308"
    INDEX 01 00:21:24
  TRACK 17 AUDIO
    TITLE "0:"
    INDEX 01 00:23:39
  TRACK 18 AUDIO
    TITLE "22:cjc171_15309"
    INDEX 01 00:24:03
  TRACK 19 AUDIO
    TITLE "0:"
    INDEX 01 00:26:16
  TRACK 20 AUDIO
    TITLE "23:cjc171_15310"
    INDEX 01 00:26:45
  TRACK 21 AUDIO
    TITLE "0:"
    INDEX 01 00:28:58
  TRACK 22 AUDIO
    TITLE "19:cjc171_15311"
    INDEX 01 00:29:57
  TRACK 23 AUDIO
    TITLE "0:"
    INDEX 01 00:30:53
  TRACK 24 AUDIO
    TITLE "20:cjc171_15312"
    INDEX 01 00:31:15
  TRACK 25 AUDIO
    TITLE "0:"
    INDEX 01 00:32:18
  TRACK 26 AUDIO
    TITLE "21:cjc171_15313"
    INDEX 01 00:33:14
  TRACK 27 AUDIO
    TITLE "0:"
    INDEX 01 00:35:09
  TRACK 28 AUDIO
    TITLE "22:cjc171_15314"
    INDEX 01 00:35:42
  TRACK 29 AUDIO
    TITLE "0:"
    INDEX 01 00:37:49
  TRACK 30 AUDIO
    TITLE "23:cjc171_15315"
    INDEX 01 00:37:70
  TRACK 31 AUDIO
    TITLE "0:"
    INDEX 01 00:40:00
  TRACK 32 AUDIO
    TITLE "19:cjc171_15316"
    INDEX 01 00:40:73
  TRACK 33 AUDIO
    TITLE "0:"
    INDEX 01 00:42:13
  TRACK 34 AUDIO
    TITLE "20:cjc171_15317"
    INDEX 01 00:42:48
  TRACK 35 AUDIO
    TITLE "0:"
    INDEX 01 00:45:46
  TRACK 36 AUDIO
    TITLE "21:cjc171_15318"
    INDEX 01 00:46:46
  TRACK 37 AUDIO
    TITLE "0:"
    INDEX 01 00:48:66
  TRACK 38 AUDIO
    TITLE "22:cjc171_15319"
    INDEX 01 00:49:22
  TRACK 39 AUDIO
    TITLE "0:"
    INDEX 01 00:51:43
  TRACK 40 AUDIO
    TITLE "23:cjc171_15320"
    INDEX 01 00:51:63
  TRACK 41 AUDIO
    TITLE "0:"
    INDEX 01 00:54:08
  TRACK 42 AUDIO
    TITLE "19:cjc171_15321"
    INDEX 01 00:55:07
  TRACK 43 AUDIO
    TITLE "0:"
    INDEX 01 00:56:05
  TRACK 44 AUDIO
    TITLE "20:cjc171_15322"
    INDEX 01 00:56:44
  TRACK 45 AUDIO
    TITLE "0:"
    INDEX 01 00:58:31
  TRACK 46 AUDIO
    TITLE "21:cjc171_15323"
    INDEX 01 00:59:33
  TRACK 47 AUDIO
    TITLE "0:"
    INDEX 01 01:02:11
  TRACK 48 AUDIO
    TITLE "22:cjc171_15324"
    INDEX 01 01:02:51
  TRACK 49 AUDIO
    TITLE "0:"
    INDEX 01 01:04:61
  TRACK 50 AUDIO
    TITLE "23:cjc171_15325"
    INDEX 01 01:05:16
  TRACK 51 AUDIO
    TITLE "0:"
    INDEX 01 01:07:24
  TRACK 52 AUDIO
    TITLE "19:cjc171_15326"
    INDEX 01 01:08:30
  TRACK 53 AUDIO
    TITLE "0:"
    INDEX 01 01:09:53
  TRACK 54 AUDIO
    TITLE "20:cjc171_15327"
    INDEX 01 01:10:17
  TRACK 55 AUDIO
    TITLE "0:"
    INDEX 01 01:12:47
  TRACK 56 AUDIO
    TITLE "21:cjc171_15328"
    INDEX 01 01:13:45
  TRACK 57 AUDIO
    TITLE "0:"
    INDEX 01 01:15:57
  TRACK 58 AUDIO
    TITLE "22:cjc171_15329"
    INDEX 01 01:16:19
  TRACK 59 AUDIO
    TITLE "0:"
    INDEX 01 01:18:54
  TRACK 60 AUDIO
    TITLE "23:cjc171_15330"
    INDEX 01 01:19:08
  TRACK 61 AUDIO
    TITLE "0:"
    INDEX 01 01:21:42
  TRACK 62 AUDIO
    TITLE "19:cjc171_15331"
    INDEX 01 01:22:40
  TRACK 63 AUDIO
    TITLE "0:"
    INDEX 01 01:23:57
  TRACK 64 AUDIO
    TITLE "20:cjc171_15332"
    INDEX 01 01:24:17
  TRACK 65 AUDIO
    TITLE "0:"
    INDEX 01 01:26:30
  TRACK 66 AUDIO
    TITLE "21:cjc171_15333"
    INDEX 01 01:27:27
  TRACK 67 AUDIO
    TITLE "0:"
    INDEX 01 01:29:32
  TRACK 68 AUDIO
    TITLE "22:cjc171_15334"
    INDEX 01 01:29:65
  TRACK 69 AUDIO
    TITLE "0:"
    INDEX 01 01:31:70
  TRACK 70 AUDIO
    TITLE "23:cjc171_15335"
    INDEX 01 01:32:14
  TRACK 71 AUDIO
    TITLE "0:"
    INDEX 01 01:34:19
  TRACK 72 AUDIO
    TITLE "19:cjc171_15336"
    INDEX 01 01:35:15
  TRACK 73 AUDIO
    TITLE "0:"
    INDEX 01 01:36:20
  TRACK 74 AUDIO
    TITLE "20:cjc171_15337"
    INDEX 01 01:36:55
  TRACK 75 AUDIO
    TITLE "0:"
    INDEX 01 01:38:60
  TRACK 76 AUDIO
    TITLE "21:cjc171_15338"
    INDEX 01 01:39:58
  TRACK 77 AUDIO
    TITLE "0:"
    INDEX 01 01:42:07
  TRACK 78 AUDIO
    TITLE "22:cjc171_15339"
    INDEX 01 01:42:40
  TRACK 79 AUDIO
    TITLE "0:"
    INDEX 01 01:44:41
  TRACK 80 AUDIO
    TITLE "23:cjc171_15340"
    INDEX 01 01:44:65
  TRACK 81 AUDIO
    TITLE "0:"
    INDEX 01 01:46:67
  TRACK 82 AUDIO
    TITLE "19:cjc171_15341"
    INDEX 01 01:47:69
  TRACK 83 AUDIO
    TITLE "0:"
    INDEX 01 01:49:15
  TRACK 84 AUDIO
    TITLE "20:cjc171_15342"
    INDEX 01 01:49:54
  TRACK 85 AUDIO
    TITLE "0:"
    INDEX 01 01:52:00
  TRACK 86 AUDIO
    TITLE "21:cjc171_15343"
    INDEX 01 01:52:72
  TRACK 87 AUDIO
    TITLE "0:"
    INDEX 01 01:54:49
  TRACK 88 AUDIO
    TITLE "22:cjc171_15344"
    INDEX 01 01:55:12
  TRACK 89 AUDIO
    TITLE "0:"
    INDEX 01 01:57:18
  TRACK 90 AUDIO
    TITLE "23:cjc171_15345"
    INDEX 01 01:57:48
  TRACK 91 AUDIO
    TITLE "0:"
    INDEX 01 01:59:54
  TRACK 92 AUDIO
    TITLE "19:cjc171_15346"
    INDEX 01 02:00:58
  TRACK 93 AUDIO
    TITLE "0:"
    INDEX 01 02:02:18
  TRACK 94 AUDIO
    TITLE "20:cjc171_15347"
    INDEX 01 02:02:55
  TRACK 95 AUDIO
    TITLE "0:"
    INDEX 01 02:03:68
  TRACK 96 AUDIO
    TITLE "21:cjc171_15348"
    INDEX 01 02:04:63
  TRACK 97 AUDIO
    TITLE "0:"
    INDEX 01 02:06:58
  TRACK 98 AUDIO
    TITLE "22:cjc171_15349"
    INDEX 01 02:07:23
  TRACK 99 AUDIO
    TITLE "0:"
    INDEX 01 02:09:23
  TRACK 100 AUDIO
    TITLE "23:cjc171_15350"
    INDEX 01 02:09:53
  TRACK 101 AUDIO
    TITLE "0:"
    INDEX 01 02:11:54
  TRACK 102 AUDIO
    TITLE "19:cjc171_15351"
    INDEX 01 02:12:57
  TRACK 103 AUDIO
    TITLE "0:"
    INDEX 01 02:14:03
  TRACK 104 AUDIO
    TITLE "20:cjc171_15352"
    INDEX 01 02:14:40
  TRACK 105 AUDIO
    TITLE "0:"
    INDEX 01 02:16:02
  TRACK 106 AUDIO
    TITLE "21:cjc171_15353"
    INDEX 01 02:17:01
  TRACK 107 AUDIO
    TITLE "0:"
    INDEX 01 02:19:49
  TRACK 108 AUDIO
    TITLE "22:cjc171_15354"
    INDEX 01 02:20:10
  TRACK 109 AUDIO
    TITLE "0:"
    INDEX 01 02:22:46
  TRACK 110 AUDIO
    TITLE "23:cjc171_15355"
    INDEX 01 02:22:67
  TRACK 111 AUDIO
    TITLE "0:"
    INDEX 01 02:25:32
  TRACK 112 AUDIO
    TITLE "19:cjc171_15356"
    INDEX 01 02:26:28
  TRACK 113 AUDIO
    TITLE "0:"
    INDEX 01 02:27:45
  TRACK 114 AUDIO
    TITLE "20:cjc171_15357"
    INDEX 01 02:28:07
  TRACK 115 AUDIO
    TITLE "0:"
    INDEX 01 02:30:55
  TRACK 116 AUDIO
    TITLE "21:cjc171_15358"
    INDEX 01 02:31:54
  TRACK 117 AUDIO
    TITLE "0:"
    INDEX 01 02:34:16
  TRACK 118 AUDIO
    TITLE "22:cjc171_15359"
    INDEX 01 02:34:49
  TRACK 119 AUDIO
    TITLE "0:"
    INDEX 01 02:37:37
  TRACK 120 AUDIO
    TITLE "23:cjc171_15360"
    INDEX 01 02:37:57
  TRACK 121 AUDIO
    TITLE "0:"
    INDEX 01 02:40:44
  TRACK 122 AUDIO
    TITLE "19:cjc171_15361"
    INDEX 01 02:41:45
  TRACK 123 AUDIO
    TITLE "0:"
    INDEX 01 02:42:62
  TRACK 124 AUDIO
    TITLE "20:cjc171_15362"
    INDEX 01 02:43:26
  TRACK 125 AUDIO
    TITLE "0:"
    INDEX 01 02:47:03
  TRACK 126 AUDIO
    TITLE "21:cjc171_15363"
    INDEX 01 02:48:00
  TRACK 127 AUDIO
    TITLE "0:"
    INDEX 01 02:51:02
  TRACK 128 AUDIO
    TITLE "22:cjc171_15364"
    INDEX 01 02:51:40
  TRACK 129 AUDIO
    TITLE "0:"
    INDEX 01 02:54:30
  TRACK 130 AUDIO
    TITLE "23:cjc171_15365"
    INDEX 01 02:54:59
  TRACK 131 AUDIO
    TITLE "0:"
    INDEX 01 02:57:50
  TRACK 132 AUDIO
    TITLE "19:cjc171_15366"
    INDEX 01 02:58:55
  TRACK 133 AUDIO
    TITLE "0:"
    INDEX 01 02:59:61
  TRACK 134 AUDIO
    TITLE "20:cjc171_15367"
    INDEX 01 03:00:25
  TRACK 135 AUDIO
    TITLE "0:"
    INDEX 01 03:02:63
  TRACK 136 AUDIO
    TITLE "21:cjc171_15368"
    INDEX 01 03:03:62
  TRACK 137 AUDIO
    TITLE "0:"
    INDEX 01 03:05:36
  TRACK 138 AUDIO
    TITLE "22:cjc171_15369"
    INDEX 01 03:06:00
  TRACK 139 AUDIO
    TITLE "0:"
    INDEX 01 03:07:74
  TRACK 140 AUDIO
    TITLE "23:cjc171_15370"
    INDEX 01 03:08:30
  TRACK 141 AUDIO
    TITLE "0:"
    INDEX 01 03:10:29
  TRACK 142 AUDIO
    TITLE "19:cjc171_15371"
    INDEX 01 03:11:30
  TRACK 143 AUDIO
    TITLE "0:"
    INDEX 01 03:12:51
  TRACK 144 AUDIO
    TITLE "20:cjc171_15372"
    INDEX 01 03:13:14
  TRACK 145 AUDIO
    TITLE "0:"
    INDEX 01 03:15:60
  TRACK 146 AUDIO
    TITLE "21:cjc171_15373"
    INDEX 01 03:16:55
  TRACK 147 AUDIO
    TITLE "0:"
    INDEX 01 03:19:34
  TRACK 148 AUDIO
    TITLE "22:cjc171_15374"
    INDEX 01 03:19:69
  TRACK 149 AUDIO
    TITLE "0:"
    INDEX 01 03:22:42
  TRACK 150 AUDIO
    TITLE "23:cjc171_15375"
    INDEX 01 03:22:62
  TRACK 151 AUDIO
    TITLE "0:"
    INDEX 01 03:25:34
  TRACK 152 AUDIO
    TITLE "19:cjc171_15376"
    INDEX 01 03:26:30
  TRACK 153 AUDIO
    TITLE "0:"
    INDEX 01 03:27:45
  TRACK 154 AUDIO
    TITLE "20:cjc171_15377"
    INDEX 01 03:28:07
  TRACK 155 AUDIO
    TITLE "0:"
    INDEX 01 03:30:24
  TRACK 156 AUDIO
    TITLE "21:cjc171_15378"
    INDEX 01 03:31:25
  TRACK 157 AUDIO
    TITLE "0:"
    INDEX 01 03:33:01
  TRACK 158 AUDIO
    TITLE "22:cjc171_15379"
    INDEX 01 03:33:34
  TRACK 159 AUDIO
    TITLE "0:"
    INDEX 01 03:35:35
  TRACK 160 AUDIO
    TITLE "23:cjc171_15380"
    INDEX 01 03:35:56
  TRACK 161 AUDIO
    TITLE "0:"
    INDEX 01 03:37:57
  TRACK 162 AUDIO
    TITLE "19:cjc171_15381"
    INDEX 01 03:38:61
  TRACK 163 AUDIO
    TITLE "0:"
    INDEX 01 03:40:16
  TRACK 164 AUDIO
    TITLE "20:cjc171_15382"
    INDEX 01 03:40:56
  TRACK 165 AUDIO
    TITLE "0:"
    INDEX 01 03:43:46
  TRACK 166 AUDIO
    TITLE "21:cjc171_15383"
    INDEX 01 03:44:49
  TRACK 167 AUDIO
    TITLE "0:"
    INDEX 01 03:46:62
  TRACK 168 AUDIO
    TITLE "22:cjc171_15384"
    INDEX 01 03:47:26
  TRACK 169 AUDIO
    TITLE "0:"
    INDEX 01 03:49:51
  TRACK 170 AUDIO
    TITLE "23:cjc171_15385"
    INDEX 01 03:50:05
  TRACK 171 AUDIO
    TITLE "0:"
    INDEX 01 03:52:27
  TRACK 172 AUDIO
    TITLE "19:cjc171_15386"
    INDEX 01 03:53:33
  TRACK 173 AUDIO
    TITLE "0:"
    INDEX 01 03:54:46
  TRACK 174 AUDIO
    TITLE "20:cjc171_15387"
    INDEX 01 03:55:08
  TRACK 175 AUDIO
    TITLE "0:"
    INDEX 01 03:57:54
  TRACK 176 AUDIO
    TITLE "21:cjc171_15388"
    INDEX 01 03:58:52
  TRACK 177 AUDIO
    TITLE "0:"
    INDEX 01 04:00:43
  TRACK 178 AUDIO
    TITLE "22:cjc171_15389"
    INDEX 01 04:01:05
  TRACK 179 AUDIO
    TITLE "0:"
    INDEX 01 04:02:59
  TRACK 180 AUDIO
    TITLE "23:cjc171_15390"
    INDEX 01 04:03:14
  TRACK 181 AUDIO
    TITLE "0:"
    INDEX 01 04:04:70
  TRACK 182 AUDIO
    TITLE "19:cjc171_15391"
    INDEX 01 04:05:69
  TRACK 183 AUDIO
    TITLE "0:"
    INDEX 01 04:07:02
  TRACK 184 AUDIO
    TITLE "20:cjc171_15392"
    INDEX 01 04:07:41
  TRACK 185 AUDIO
    TITLE "0:"
    INDEX 01 04:09:51
  TRACK 186 AUDIO
    TITLE "21:cjc171_15393"
    INDEX 01 04:10:51
  TRACK 187 AUDIO
    TITLE "0:"
    INDEX 01 04:13:00
  TRACK 188 AUDIO
    TITLE "22:cjc171_15394"
    INDEX 01 04:13:33
  TRACK 189 AUDIO
    TITLE "0:"
    INDEX 01 04:15:64
  TRACK 190 AUDIO
    TITLE "23:cjc171_15395"
    INDEX 01 04:16:10
  TRACK 191 AUDIO
    TITLE "0:"
    INDEX 01 04:18:43
  TRACK 192 AUDIO
    TITLE "19:cjc171_15396"
    INDEX 01 04:19:38
  TRACK 193 AUDIO
    TITLE "0:"
    INDEX 01 04:20:53
  TRACK 194 AUDIO
    TITLE "20:cjc171_15397"
    INDEX 01 04:21:19
  TRACK 195 AUDIO
    TITLE "0:"
    INDEX 01 04:23:65
  TRACK 196 AUDIO
    TITLE "21:cjc171_15398"
    INDEX 01 04:24:65
  TRACK 197 AUDIO
    TITLE "0:"
    INDEX 01 04:26:52
  TRACK 198 AUDIO
    TITLE "22:cjc171_15399"
    INDEX 01 04:27:10
  TRACK 199 AUDIO
    TITLE "0:"
    INDEX 01 04:29:05
  TRACK 200 AUDIO
    TITLE "23:cjc171_15400"
    INDEX 01 04:29:25
  TRACK 201 AUDIO
    TITLE "0:"
    INDEX 01 04:31:20
